<svg width="22" height="20" viewBox="0 0 22 20" fill="none" xmlns="http://www.w3.org/2000/svg">
<path fill-rule="evenodd" clip-rule="evenodd" d="M6.1111 7.5C4.76107 7.5 3.66666 6.38071 3.66666 5C3.66666 3.61929 4.76107 2.5 6.1111 2.5C7.46113 2.5 8.55554 3.61929 8.55554 5C8.55554 6.38071 7.46113 7.5 6.1111 7.5ZM9.53305 8.57098C10.4383 7.6635 11 6.39883 11 5C11 2.23858 8.81116 0 6.1111 0C3.41105 0 1.22222 2.23858 1.22222 5C1.22222 6.39883 1.78389 7.6635 2.68915 8.57098C1.06649 9.69461 0 11.5949 0 13.75V18.75C0 19.4404 0.547207 20 1.22222 20C1.89723 20 2.44444 19.4404 2.44444 18.75V13.75C2.44444 11.6789 4.08606 10 6.1111 10C8.13614 10 9.77776 11.6789 9.77776 13.75V18.75C9.77776 19.4404 10.325 20 11 20C11.675 20 12.2222 19.4404 12.2222 18.75V13.75C12.2222 11.5949 11.1557 9.69461 9.53305 8.57098ZM13.4444 4.375C13.4444 3.68464 13.9916 3.125 14.6666 3.125H17.827L17.4691 2.75888C16.9918 2.27073 16.9918 1.47927 17.4691 0.991117C17.9464 0.502961 18.7202 0.502961 19.1975 0.991117L21.642 3.49112C21.9915 3.84861 22.0961 4.38626 21.9069 4.85335C21.7178 5.32045 21.2721 5.625 20.7777 5.625H14.6666C13.9916 5.625 13.4444 5.06536 13.4444 4.375ZM20.7777 7.5C21.4528 7.5 22 8.05964 22 8.75C22 9.44036 21.4528 10 20.7777 10H17.6173L17.9753 10.3661C18.4526 10.8543 18.4526 11.6457 17.9753 12.1339C17.498 12.622 16.7241 12.622 16.2468 12.1339L13.8024 9.63388C13.4529 9.27638 13.3483 8.73874 13.5375 8.27164C13.7266 7.80455 14.1723 7.5 14.6666 7.5H20.7777Z" fill="white"/>
</svg>
