<svg width="18" height="19" viewBox="0 0 18 19" fill="none" xmlns="http://www.w3.org/2000/svg">
<path fill-rule="evenodd" clip-rule="evenodd" d="M14.53 0.055542H4.23665C2.3417 0.055542 0.805542 1.68551 0.805542 3.69617V14.618C0.805542 16.6287 2.3417 18.2587 4.23665 18.2587H14.53C16.4249 18.2587 17.9611 16.6287 17.9611 14.618V3.69617C17.9611 1.68551 16.4249 0.055542 14.53 0.055542ZM2.5211 3.69617C2.5211 2.69084 3.28918 1.87585 4.23665 1.87585H14.53C15.4775 1.87585 16.2455 2.69084 16.2455 3.69617V14.618C16.2455 15.6234 15.4775 16.4384 14.53 16.4384H4.23665C3.28918 16.4384 2.5211 15.6234 2.5211 14.618V3.69617ZM14.0619 6.24852C14.0174 6.01166 13.8859 5.80331 13.6966 5.66934C13.5072 5.53537 13.2754 5.48676 13.0522 5.53423L10.7949 6.01431C10.3304 6.1131 10.0293 6.59273 10.1224 7.08559C10.2152 7.57698 10.6648 7.896 11.1278 7.8L9.68011 9.77571L7.87306 8.3083C7.50865 8.01239 6.98929 8.07319 6.69445 8.44629L4.43714 11.3028C4.13276 11.688 4.18028 12.262 4.5433 12.585C4.90631 12.908 5.44734 12.8575 5.75172 12.4724L7.48192 10.2829L9.31346 11.7702C9.68764 12.0741 10.2227 12.0008 10.512 11.6061L12.7466 8.55646L12.831 9.00517C12.9237 9.49811 13.3755 9.81798 13.8401 9.7196C14.3047 9.62123 14.6061 9.14187 14.5134 8.64893L14.0619 6.24852Z" fill="white"/>
</svg>
