<svg width="21" height="20" viewBox="0 0 21 20" fill="none" xmlns="http://www.w3.org/2000/svg">
<path fill-rule="evenodd" clip-rule="evenodd" d="M17.1383 0.493042H3.62834C2.02947 0.493042 0.733337 1.8442 0.733337 3.51093V16.5884C0.733337 18.2552 2.02947 19.6063 3.62834 19.6063H17.1383C18.7372 19.6063 20.0333 18.2552 20.0333 16.5884V3.51093C20.0333 1.84419 18.7372 0.493042 17.1383 0.493042ZM2.66334 3.51093C2.66334 2.95535 3.09538 2.50497 3.62834 2.50497H17.1383C17.6713 2.50497 18.1033 2.95535 18.1033 3.51093V5.52285H2.66334V3.51093ZM2.66334 7.53478V16.5884C2.66334 17.144 3.09538 17.5944 3.62834 17.5944H17.1383C17.6713 17.5944 18.1033 17.144 18.1033 16.5884V7.53478H2.66334ZM6.04084 9.04372C5.24141 9.04372 4.59334 9.7193 4.59334 10.5527C4.59334 11.386 5.24141 12.0616 6.04084 12.0616C6.84027 12.0616 7.48834 11.386 7.48834 10.5527C7.48834 9.7193 6.84027 9.04372 6.04084 9.04372ZM8.93584 10.5527C8.93584 9.7193 9.58391 9.04372 10.3833 9.04372C11.1828 9.04372 11.8308 9.7193 11.8308 10.5527C11.8308 11.386 11.1828 12.0616 10.3833 12.0616C9.58391 12.0616 8.93584 11.386 8.93584 10.5527ZM14.7258 9.04372C13.9264 9.04372 13.2783 9.7193 13.2783 10.5527C13.2783 11.386 13.9264 12.0616 14.7258 12.0616C15.5253 12.0616 16.1733 11.386 16.1733 10.5527C16.1733 9.7193 15.5253 9.04372 14.7258 9.04372ZM13.2783 14.5765C13.2783 13.7431 13.9264 13.0676 14.7258 13.0676C15.5253 13.0676 16.1733 13.7431 16.1733 14.5765C16.1733 15.4099 15.5253 16.0855 14.7258 16.0855C13.9264 16.0855 13.2783 15.4099 13.2783 14.5765ZM6.04084 13.0676C5.24141 13.0676 4.59334 13.7431 4.59334 14.5765C4.59334 15.4099 5.24141 16.0855 6.04084 16.0855C6.84027 16.0855 7.48834 15.4099 7.48834 14.5765C7.48834 13.7431 6.84027 13.0676 6.04084 13.0676ZM8.93584 14.5765C8.93584 13.7431 9.58391 13.0676 10.3833 13.0676C11.1828 13.0676 11.8308 13.7431 11.8308 14.5765C11.8308 15.4099 11.1828 16.0855 10.3833 16.0855C9.58391 16.0855 8.93584 15.4099 8.93584 14.5765Z" fill="white"/>
</svg>
