<svg width="18" height="19" viewBox="0 0 18 19" fill="none" xmlns="http://www.w3.org/2000/svg">
<path fill-rule="evenodd" clip-rule="evenodd" d="M15.3878 0.700073H3.37888C1.95766 0.700073 0.805542 1.92255 0.805542 3.43054V16.1727C0.805542 17.6807 1.95766 18.9032 3.37888 18.9032H15.3878C16.809 18.9032 17.9611 17.6807 17.9611 16.1727V3.43054C17.9611 1.92255 16.809 0.700073 15.3878 0.700073ZM2.5211 3.43054C2.5211 2.92788 2.90514 2.52039 3.37888 2.52039H15.3878C15.8615 2.52039 16.2455 2.92788 16.2455 3.43054V16.1727C16.2455 16.6754 15.8615 17.0829 15.3878 17.0829H3.37888C2.90514 17.0829 2.5211 16.6754 2.5211 16.1727V3.43054ZM9.38332 4.3407C8.67271 4.3407 8.09665 4.95193 8.09665 5.70593V13.8973C8.09665 14.6513 8.67271 15.2626 9.38332 15.2626C10.0939 15.2626 10.67 14.6513 10.67 13.8973V5.70593C10.67 4.95193 10.0939 4.3407 9.38332 4.3407ZM12.3855 9.34656C12.3855 8.59256 12.9616 7.98132 13.6722 7.98132C14.3828 7.98132 14.9589 8.59256 14.9589 9.34656V13.8973C14.9589 14.6513 14.3828 15.2626 13.6722 15.2626C12.9616 15.2626 12.3855 14.6513 12.3855 13.8973V9.34656ZM5.52332 9.80164C4.81271 9.80164 4.23665 10.4129 4.23665 11.1669V13.8973C4.23665 14.6513 4.81271 15.2626 5.52332 15.2626C6.23393 15.2626 6.80999 14.6513 6.80999 13.8973V11.1669C6.80999 10.4129 6.23393 9.80164 5.52332 9.80164Z" fill="white"/>
</svg>
